<svg width="24" height="24" viewBox="0 0 24 24" fill="none" xmlns="http://www.w3.org/2000/svg">
<g clip-path="url(#clip0_1279_3845)">
<path d="M14.25 7.5V18.8128C14.2501 18.9362 14.2806 19.0576 14.3388 19.1663C14.397 19.2751 14.4811 19.3678 14.5837 19.4363L15.615 20.1234C15.715 20.1901 15.8296 20.2318 15.9491 20.2449C16.0686 20.2581 16.1895 20.2423 16.3017 20.1989C16.4138 20.1555 16.5138 20.0858 16.5934 19.9957C16.6729 19.9055 16.7297 19.7976 16.7587 19.6809L18 15" stroke="#232732" stroke-linecap="round" stroke-linejoin="round"/>
<path d="M3 18.7508C3.00003 18.8937 3.04085 19.0335 3.11765 19.1539C3.19446 19.2744 3.30405 19.3704 3.43354 19.4306C3.56304 19.4909 3.70705 19.5129 3.84864 19.4941C3.99023 19.4754 4.12351 19.4165 4.23281 19.3246C9.14531 15.2033 14.25 15.0008 14.25 15.0008H18C18.9946 15.0008 19.9484 14.6058 20.6517 13.9025C21.3549 13.1992 21.75 12.2454 21.75 11.2508C21.75 10.2563 21.3549 9.30245 20.6517 8.59919C19.9484 7.89593 18.9946 7.50084 18 7.50084H14.25C14.25 7.50084 9.14531 7.29834 4.23281 3.17803C4.12357 3.08613 3.99038 3.02732 3.84887 3.0085C3.70737 2.98968 3.56343 3.01164 3.43397 3.07179C3.30451 3.13194 3.1949 3.22779 3.11803 3.34808C3.04116 3.46836 3.00021 3.60809 3 3.75084V18.7508Z" stroke="#232732" stroke-linecap="round" stroke-linejoin="round"/>
</g>
<defs>
<clipPath id="clip0_1279_3845">
<rect width="24" height="24" fill="white"/>
</clipPath>
</defs>
</svg>
