<svg width="40" height="37" viewBox="0 0 40 37" fill="none" xmlns="http://www.w3.org/2000/svg">
<path d="M11.4648 13.1777C9.36354 13.5607 6.68601 16.6779 9.50065 20.0672" stroke="#FF7272" stroke-linecap="round" stroke-linejoin="round"/>
<path d="M8.85317 12.4755L6.56595 8.54059" stroke="#FF7272" stroke-linecap="round" stroke-linejoin="round"/>
<path d="M6.52344 20.0605L2.34374 22.0254" stroke="#FF7272" stroke-linecap="round" stroke-linejoin="round"/>
<path d="M5.99609 15.4062L2.8433 14.5074" stroke="#FF7272" stroke-linecap="round" stroke-linejoin="round"/>
<path d="M28.0964 35.9511L32.4997 29.0155C31.5858 28.5585 30.215 28.1016 28.5932 27.5302L24.1197 34.8174L28.0964 35.9511Z" fill="#EAEDF3" stroke="#232732"/>
<path d="M14.5569 2.6543C16.8125 11.7552 28.6959 16.3658 35.7775 17.8584C37.1335 18.1442 38.4336 18.9152 38.7756 20.2582C39.6582 23.7238 37.8217 27.179 35.2867 28.7085C34.1477 29.3957 32.7438 29.127 31.5119 28.6252C18.4164 23.2912 9.45106 27.7998 6.51145 30.8738L14.5569 2.6543Z" stroke="#3192FF"/>
<path d="M29.0547 15.877C28.957 16.2195 26.9055 23.4151 25.9364 26.8144" stroke="#3192FF"/>
<path d="M22.342 9.02071L23.5952 7.76758L24.7344 9.13463L23.4812 10.2738L22.342 9.02071Z" fill="#FF9533"/>
<path d="M15.1421 22.845L16.0969 21.9336L16.9648 22.9278L16.0101 23.7563L15.1421 22.845Z" fill="#39B882"/>
<path d="M5.77485 36.2102L6.37158 35.6406L6.91406 36.262L6.31733 36.7798L5.77485 36.2102Z" fill="#C892FF"/>
<path d="M0.0612853 18.733L0.53867 18.2773L0.972656 18.7745L0.495271 19.1887L0.0612853 18.733Z" fill="#3192FF"/>
<path d="M5.08863 0.455685L5.56601 0L6 0.497111L5.52262 0.911371L5.08863 0.455685Z" fill="#FF7272"/>
<path d="M8.51448 5.82284L9.3499 5.02539L10.1094 5.89534L9.27395 6.62029L8.51448 5.82284Z" fill="#C892FF"/>
</svg>
