<svg width="40" height="31" viewBox="0 0 20 19" fill="none"
    xmlns="http://www.w3.org/2000/svg">
    <path fill-rule="evenodd" clip-rule="evenodd"
        d="M6.44015 11.8663C6.44015 8.47855 9.18659 5.73211 12.5743 5.73211C15.9621 5.73211 18.7085 8.47855 18.7085 11.8663C18.7085 15.254 15.9621 18.0005 12.5743 18.0005C9.18659 18.0005 6.44015 15.254 6.44015 11.8663Z"
        stroke="white" stroke-width="1.5" stroke-linecap="round"
        stroke-linejoin="round" />
    <path d="M12.5737 12.4233L12.5737 8.51975" stroke="white" stroke-width="1.5"
        stroke-linecap="round" stroke-linejoin="round" />
    <path d="M12.5737 14.6546L12.5737 14.6602" stroke="white" stroke-width="1.5"
        stroke-linecap="round" stroke-linejoin="round" />
    <path
        d="M16.5833 7.3907V3.83345C16.5833 3.05074 15.9487 2.41678 15.1667 2.41678H2.41667C1.63467 2.41678 1 3.05074 1 3.83345V15.1661C1 15.9488 1.63467 16.5835 2.41667 16.5835H8.80726"
        stroke="white" stroke-width="1.5" stroke-linecap="round"
        stroke-linejoin="round" />
    <path d="M4.40039 1V3.04" stroke="white" stroke-width="1.5" stroke-linecap="round"
        stroke-linejoin="round" />
    <path d="M13.2402 1V3.04" stroke="white" stroke-width="1.5" stroke-linecap="round"
        stroke-linejoin="round" />
</svg>