<svg width="39" height="39" viewBox="0 0 39 39" fill="none" xmlns="http://www.w3.org/2000/svg">
<path d="M20.7606 7.03516H10.5869C9.06404 7.03516 7.78079 8.17185 7.59702 9.68355C7.47078 10.722 8.15441 11.6863 9.17608 11.9109L9.85136 12.0593" stroke="#3192FF" stroke-linecap="round" stroke-linejoin="round"/>
<path d="M10.2375 7.03516H29.6319C30.4467 7.03516 31.1072 7.69567 31.1072 8.51045V31.8402C31.1072 32.655 30.4467 33.3155 29.6319 33.3155H11.7128C10.898 33.3155 10.2375 32.655 10.2375 31.8402V10.8018C10.2375 10.1589 9.45599 9.84163 9.00781 10.3026" stroke="#3192FF" stroke-linecap="round" stroke-linejoin="round"/>
<path d="M20.7891 13.7207H26.1997" stroke="#FF7272" stroke-linecap="round" stroke-linejoin="round"/>
<path d="M14.1016 18.6289H26.4688" stroke="#39B882" stroke-linecap="round" stroke-linejoin="round"/>
<path d="M14.1016 23.2676H26.4688" stroke="#39B882" stroke-linecap="round" stroke-linejoin="round"/>
<path d="M27.0391 37.7735L27.9332 33.0977L33.0297 33.3395L33.9238 38.0153L30.0791 36.5642L27.0391 37.7735Z" fill="white"/>
<path d="M27.8669 33.2748L27.0234 38.0757L30.5087 36.4947L33.9939 38.0757L33.1505 33.2695" fill="#EAEDF3"/>
<path d="M27.8669 33.2748L27.0234 38.0757L30.5087 36.4947L33.9939 38.0757L33.1505 33.2695" stroke="#232732" stroke-linecap="round" stroke-linejoin="round"/>
<path d="M30.4232 34.0827C32.6287 34.0827 34.4167 32.2947 34.4167 30.0892C34.4167 27.8836 32.6287 26.0957 30.4232 26.0957C28.2176 26.0957 26.4297 27.8836 26.4297 30.0892C26.4297 32.2947 28.2176 34.0827 30.4232 34.0827Z" fill="#EAEDF3" stroke="#232732" stroke-linecap="round" stroke-linejoin="round"/>
<path d="M27.8669 33.2748L27.0234 38.0757L30.5087 36.4947L33.9939 38.0757L33.1505 33.2695" stroke="#171717" stroke-linecap="round" stroke-linejoin="round"/>
<path d="M2.45882 21.5439L1.17087 20.3145L0 21.6556L1.28796 22.7733L2.45882 21.5439Z" fill="#FF9533"/>
<path d="M12.2956 3.83921L11.5228 3.10156L10.8203 3.90627L11.5931 4.57686L12.2956 3.83921Z" fill="#39B882"/>
<path d="M25.5734 1.87241L25.0582 1.13477L24.5898 1.93947L25.105 2.61006L25.5734 1.87241Z" fill="#C892FF"/>
<path d="M35.4054 15.1498L34.8902 14.4121L34.4219 15.2168L34.9371 15.8874L35.4054 15.1498Z" fill="#3192FF"/>
<path d="M24.5886 26.9525L23.8158 26.2148L23.1133 27.0195L23.8861 27.6901L24.5886 26.9525Z" fill="#FF7272"/>
<path d="M13.7687 31.3783L13.2535 30.6406L12.7852 31.4453L13.3003 32.1159L13.7687 31.3783Z" fill="#C892FF"/>
<circle cx="34.9824" cy="4.01765" r="3.01765" stroke="#39B882" stroke-linecap="round" stroke-linejoin="round"/>
<path d="M33.2343 3.94318L34.1872 5.12907L36.7284 2.58789" stroke="#39B882" stroke-linecap="round" stroke-linejoin="round"/>
</svg>
