<svg width="220" height="54" viewBox="0 0 220 54" fill="none" xmlns="http://www.w3.org/2000/svg">
<path fill-rule="evenodd" clip-rule="evenodd" d="M170.352 -29.0444L60.7323 4.76735L60.5869 4.8122L60.4411 4.76844L0 -13.3791L0.287569 -14.3369L60.583 3.76692L170.057 -30L170.352 -29.0444ZM170.352 -20.8309L60.7323 12.9809L60.5869 13.0257L60.4412 12.982L3.36416e-05 -5.16559L0.287603 -6.12335L60.583 11.9804L170.057 -21.7865L170.352 -20.8309ZM60.7323 21.1953L170.352 -12.6165L170.057 -13.5721L60.583 20.1948L0.287603 2.09105L3.36416e-05 3.04881L60.4412 21.1964L60.5869 21.2401L60.7323 21.1953ZM170.352 -4.4021L60.7323 29.4097L60.5869 29.4545L60.4412 29.4108L3.36416e-05 11.2632L0.287603 10.3054L60.583 28.4092L170.057 -5.35767L170.352 -4.4021ZM60.7323 37.6237L170.352 3.81195L170.057 2.85637L60.583 36.6233L0.287603 18.5195L3.36416e-05 19.4772L60.4412 37.6248L60.5869 37.6686L60.7323 37.6237Z" fill="url(#paint0_linear_1076_3757)"/>
<path fill-rule="evenodd" clip-rule="evenodd" d="M346.076 -26.0581L214.678 14.4709L214.533 14.5157L214.387 14.472L141.938 -7.28087L142.226 -8.23863L214.529 13.4705L345.781 -27.0137L346.076 -26.0581ZM346.076 -16.2126L214.678 24.3164L214.533 24.3612L214.387 24.3175L141.938 2.56463L142.226 1.60687L214.529 23.316L345.781 -17.1682L346.076 -16.2126ZM214.678 34.1626L346.076 -6.36636L345.781 -7.32194L214.529 33.1622L142.226 11.4531L141.938 12.4109L214.387 34.1637L214.533 34.2075L214.678 34.1626ZM346.076 3.47987L214.678 44.0089L214.533 44.0537L214.387 44.0099L141.938 22.2571L142.226 21.2993L214.529 43.0084L345.781 2.5243L346.076 3.47987ZM214.678 53.8547L346.076 13.3257L345.781 12.3702L214.529 52.8543L142.226 31.1452L141.938 32.103L214.387 53.8558L214.533 53.8996L214.678 53.8547Z" fill="url(#paint1_linear_1076_3757)"/>
<defs>
<linearGradient id="paint0_linear_1076_3757" x1="13.8922" y1="8.94191" x2="100.129" y2="-19.9765" gradientUnits="userSpaceOnUse">
<stop stop-color="white" stop-opacity="0"/>
<stop offset="1" stop-color="white"/>
</linearGradient>
<linearGradient id="paint1_linear_1076_3757" x1="128.567" y1="13.6891" x2="300.824" y2="-44.9058" gradientUnits="userSpaceOnUse">
<stop stop-color="white" stop-opacity="0"/>
<stop offset="0.655846" stop-color="white"/>
</linearGradient>
</defs>
</svg>
