<svg width="40" height="31" viewBox="0 0 20 16" fill="none"
    xmlns="http://www.w3.org/2000/svg">
    <path
        d="M10.5867 11.4617C11.7805 10.7805 12.5649 9.47258 12.5649 7.99973C12.5649 5.81461 10.7935 4.04321 8.60842 4.04321C6.4233 4.04321 4.6519 5.81461 4.6519 7.99973C4.6519 10.1849 6.4233 11.9563 8.60842 11.9563"
        stroke="black" stroke-width="1.5" stroke-linecap="round"
        stroke-linejoin="round" />
    <path d="M10.5867 9.48399V11.4622H12.5649" stroke="black" stroke-width="1.5"
        stroke-linecap="round" stroke-linejoin="round" />
    <path fill-rule="evenodd" clip-rule="evenodd"
        d="M3.22915 1H14.2721C15.5032 1 16.5012 1.99802 16.5012 3.22915V15H3.22915C1.99802 15 1 14.002 1 12.7708V3.22915C1 1.99802 1.99802 1 3.22915 1Z"
        stroke="black" stroke-width="1.5" stroke-linecap="round"
        stroke-linejoin="round" />
    <path
        d="M16.5524 14.9997C18.0913 14.9997 18.7301 13.7521 18.7301 12.2132V4.96849H16.501"
        stroke="black" stroke-width="1.5" stroke-linecap="round"
        stroke-linejoin="round" />
</svg>