<svg width="17" height="16" viewBox="0 0 17 16" fill="none" xmlns="http://www.w3.org/2000/svg">
<path d="M11.3935 10.0608L11.3934 10.0608C11.3708 10.0822 11.3504 10.0899 11.3327 10.0926C11.3125 10.0957 11.2881 10.0932 11.2638 10.0828C11.2397 10.0725 11.2217 10.057 11.2106 10.0411C11.2011 10.0274 11.1921 10.0074 11.1921 9.9741V8.11703V7.61366L10.6888 7.61704C9.74121 7.6234 8.90456 7.68386 8.2006 7.83528C7.49857 7.98629 6.88985 8.23579 6.43568 8.64919C5.52804 9.47534 5.4312 10.7489 5.8839 12.4128C5.06763 11.6903 4.37939 10.474 4.37939 9.28647C4.37939 8.42651 4.55462 7.77484 4.84502 7.2746C5.13436 6.77619 5.55651 6.39617 6.10283 6.10715C7.21882 5.51677 8.81538 5.32442 10.6949 5.314L11.1921 5.31124V4.814V2.95559C11.1921 2.92215 11.2011 2.90219 11.2106 2.88856C11.2216 2.87272 11.2396 2.85726 11.2638 2.84695C11.288 2.83661 11.3125 2.83408 11.3328 2.83719C11.3506 2.83991 11.3709 2.84756 11.3934 2.86884L11.3935 2.86886L15.1096 6.37814C15.1096 6.37814 15.1096 6.37814 15.1096 6.37815C15.1593 6.42513 15.1593 6.50462 15.1096 6.55162C15.1096 6.55162 15.1096 6.55163 15.1096 6.55164L11.3935 10.0608Z" stroke="white"/>
<path d="M15.647 14.7031L1.14697 14.7031L1.14697 0.703124L4.64697 0.703125" stroke="white" stroke-linecap="round" stroke-linejoin="round"/>
</svg>
